<svg version="1.1" id="Layer_1" xmlns="http://www.w3.org/2000/svg" xmlns:xlink="http://www.w3.org/1999/xlink" x="0px" y="0px"
	 width="100%" viewBox="0 0 1080 1080" enable-background="new 0 0 1080 1080" xml:space="preserve">
<path fill="#000000" opacity="1.000000" stroke="none" 
	d="
M1.000000,394.000000 
	C1.000000,262.681763 1.000000,131.863525 1.000000,1.022646 
	C360.943359,1.022646 720.886719,1.022646 1080.915039,1.022646 
	C1080.915039,360.901794 1080.915039,720.803650 1080.915039,1080.852783 
	C721.000061,1080.852783 361.000031,1080.852783 1.000000,1080.852783 
	C1.000000,852.112793 1.000000,623.306396 1.000000,394.000000 
M1009.775269,625.002686 
	C1014.990784,625.529541 1020.206238,626.056335 1026.460327,626.688049 
	C1023.580872,622.048523 1021.117615,618.037659 1018.613770,614.052307 
	C1005.390686,593.006104 992.184082,571.949402 978.918945,550.929688 
	C968.218506,533.973877 957.423279,517.077942 946.726624,500.119812 
	C945.380920,497.986359 944.231812,496.622314 941.210022,497.394409 
	C909.976807,505.374634 878.704346,513.201233 847.440674,521.062073 
	C844.728516,521.743958 843.296753,522.835999 844.910522,525.945923 
	C846.195435,528.421997 846.957520,531.169373 847.137573,533.984375 
	C838.771301,536.033813 830.405090,538.083252 821.948120,539.393494 
	C818.644958,531.964233 815.360352,524.526611 812.035278,517.107056 
	C799.070496,488.176849 786.102356,459.248077 773.117493,430.326843 
	C756.733948,393.835815 740.336670,357.350922 723.937988,320.866699 
	C710.668640,291.344666 697.383972,261.829529 684.114014,232.307770 
	C667.714233,195.823196 651.287109,159.350861 634.967590,122.830399 
	C632.647095,117.637642 630.134094,114.265472 623.453613,113.413399 
	C603.824707,110.909805 584.350098,107.202263 564.808594,104.005577 
	C547.705261,101.207741 530.587341,98.498962 513.486511,95.685829 
	C494.110901,92.498489 474.754822,89.191887 455.376099,86.023750 
	C436.155731,82.881485 416.904053,79.929474 397.691376,76.741798 
	C378.808533,73.608841 359.970673,70.204781 341.088898,67.064980 
	C318.790771,63.357086 296.469818,59.786007 274.150726,56.205658 
	C270.731171,55.657112 267.268433,55.377575 263.263519,54.907658 
	C265.778687,60.503212 267.877930,65.173347 269.159180,69.958786 
	C262.686768,68.796326 256.214355,67.633858 249.144150,66.364037 
	C251.351868,70.805489 253.128159,74.379013 254.099472,77.996567 
	C251.572479,77.539368 249.045486,77.082161 246.111847,76.551392 
	C267.083557,117.987167 287.758484,158.836502 308.536438,199.889420 
	C311.880920,200.253586 315.471191,200.467850 318.997742,201.061066 
	C330.316864,202.965103 341.586060,205.177368 352.923828,206.956421 
	C366.863831,209.143799 380.868591,210.915787 394.817444,213.049942 
	C409.218445,215.253281 423.636810,217.409607 437.941132,220.143494 
	C443.114471,221.132217 449.209045,219.956772 452.295807,225.006821 
	C440.050415,223.244370 427.786743,221.599243 415.563995,219.691681 
	C397.638367,216.894104 379.749084,213.864258 361.831207,211.015930 
	C344.070221,208.192520 326.286499,205.512222 308.524780,202.693176 
	C292.724945,200.185501 276.941589,197.573944 261.150970,195.008057 
	C245.199844,192.416092 229.252960,189.797699 213.296494,187.238937 
	C196.030563,184.470200 178.757050,181.748657 161.484390,179.021896 
	C143.241470,176.141968 124.995728,173.279831 106.751083,170.410782 
	C101.466652,169.579773 96.181747,168.751709 90.897064,167.922318 
	C90.653191,168.313736 90.409317,168.705154 90.165443,169.096573 
	C91.970955,170.737656 93.762779,172.394119 95.584656,174.016815 
	C100.020844,177.967987 104.470993,181.903488 108.069107,185.978424 
	C97.124969,184.365677 86.180832,182.752945 73.851723,180.936111 
	C77.539886,184.594391 80.234283,187.266953 82.099815,190.012405 
	C79.786743,189.733994 77.473671,189.455597 73.650963,188.995483 
	C76.605721,191.579666 78.488525,193.220840 80.365395,194.868759 
	C88.623985,202.119919 96.807480,209.458771 105.155388,216.605560 
	C118.067390,227.659729 131.149353,238.515518 144.049789,249.583023 
	C154.750702,258.763550 165.248795,268.180084 175.918884,277.396973 
	C187.307983,287.235016 198.811813,296.940094 210.230362,306.744263 
	C217.937958,313.362122 225.551758,320.089264 233.266312,326.698914 
	C244.317078,336.166931 255.460648,345.526917 266.490234,355.019379 
	C274.819580,362.187866 282.972839,369.561096 291.312164,376.717743 
	C301.977325,385.870300 312.797913,394.841705 323.462219,403.995270 
	C331.800964,411.152649 339.939667,418.543152 348.282959,425.695129 
	C358.827087,434.733734 369.542755,443.572205 380.082275,452.616058 
	C388.422333,459.772583 396.535034,467.194092 404.879608,474.345184 
	C417.911957,485.513428 431.106262,496.492706 444.135162,507.664917 
	C454.712463,516.734985 465.117645,526.005371 475.658539,535.118347 
	C480.781342,539.547241 485.928986,543.911316 493.032104,545.023438 
	C498.606476,545.896118 504.153748,547.021118 509.648438,548.309448 
	C533.141907,553.817688 556.593811,559.503418 580.094299,564.981018 
	C606.585327,571.155579 633.124268,577.124451 659.619324,583.281860 
	C677.481262,587.432983 695.299438,591.772156 713.144226,595.997498 
	C735.687256,601.335144 758.227417,606.685120 780.789062,611.943176 
	C790.305603,614.161011 799.873657,616.157715 809.524780,618.278259 
	C809.284485,616.822632 809.121033,615.832397 809.787048,614.983643 
	C814.135071,615.850037 818.483093,616.716370 822.831116,617.582764 
	C823.449219,616.911682 824.067383,616.240601 824.685547,615.569519 
	C823.025024,614.777710 820.999573,614.354126 819.766113,613.131470 
	C813.922241,607.338806 808.294617,601.328003 803.438599,595.133484 
	C812.465637,596.924255 821.492676,598.715027 829.406433,600.284973 
	C823.495728,593.814148 817.154297,586.871765 810.917664,579.190430 
	C808.224304,573.138733 805.530945,567.087097 803.369507,560.394958 
	C809.925293,566.649170 816.481140,572.903442 823.036926,579.157654 
	C823.292603,578.920593 823.548340,578.683533 823.804016,578.446472 
	C818.153564,565.671326 812.503113,552.896118 807.560242,540.017212 
	C813.791077,545.920593 819.986511,551.862061 826.280090,557.697815 
	C827.674438,558.990723 829.415039,559.910278 831.651184,561.347900 
	C834.526306,568.129639 837.316101,574.949097 840.294983,581.684937 
	C845.934021,594.436035 851.593384,607.179871 857.426636,619.842651 
	C859.842346,625.086670 861.058533,631.855164 869.641541,630.385803 
	C872.289429,629.932556 875.163513,630.741638 877.927429,631.035278 
	C890.251892,632.344666 902.568665,633.728271 914.898804,634.981506 
	C922.548218,635.758972 930.229919,636.227661 937.873108,637.056091 
	C949.042664,638.266785 960.186279,639.715576 971.349426,640.988403 
	C980.571716,642.040039 989.798401,643.074097 999.044312,643.870972 
	C1000.325500,643.981445 1001.727966,642.684021 1003.932068,642.005981 
	C1008.828247,642.578308 1013.724426,643.150635 1019.409851,643.815186 
	C1018.743164,642.362915 1018.343750,641.279480 1017.776367,640.292725 
	C1014.839783,635.185608 1011.860291,630.103210 1009.775269,625.002686 
M492.785645,887.628174 
	C495.410431,886.621338 498.251495,885.957214 500.582977,884.485657 
	C502.103546,883.525879 503.592316,881.496826 503.845703,879.764099 
	C504.345917,876.343506 504.168427,872.783325 503.937866,869.302917 
	C502.681244,850.334290 501.296295,831.374146 500.010651,812.407349 
	C499.294800,801.847351 498.651947,791.282043 498.037170,780.715576 
	C496.998962,762.870300 496.039001,745.020569 494.990173,727.175964 
	C494.039124,710.994385 492.987305,694.818665 492.027649,678.637573 
	C490.989288,661.129700 489.943542,643.621887 489.018280,626.107849 
	C488.240631,611.387756 487.638397,596.658386 486.920166,581.934998 
	C486.892792,581.374512 486.463928,580.833618 485.843994,579.423218 
	C481.951019,585.383606 478.463409,590.723450 474.298492,596.188660 
	C472.583710,598.445496 470.868927,600.702332 469.007660,602.208374 
	C468.524078,600.578125 468.040466,598.947815 467.531525,597.232056 
	C467.124573,597.559021 466.631165,597.789612 466.384338,598.177307 
	C450.146606,623.683411 434.001068,649.248596 417.689026,674.707031 
	C401.540924,699.909607 385.189362,724.981812 368.995117,750.155029 
	C350.627106,778.707214 332.368927,807.330139 313.996368,835.879578 
	C303.106842,852.800964 292.017822,869.594055 281.143402,886.525085 
	C259.236237,920.633728 237.403519,954.790222 215.568375,988.945007 
	C212.048477,994.450928 208.674042,1000.049866 204.949127,1006.062988 
	C207.520172,1005.666870 209.241470,1005.401733 210.989136,1005.854736 
	C209.929413,1007.703918 208.869705,1009.553040 207.377914,1012.156189 
	C209.194138,1011.898499 210.020294,1011.933228 210.726593,1011.659119 
	C240.401352,1000.141968 270.024628,988.491028 299.742004,977.085083 
	C330.670563,965.214355 361.719879,953.658508 392.658661,941.814148 
	C421.946472,930.601868 451.154633,919.181702 480.407410,907.877686 
	C493.455963,902.835510 493.493286,902.861816 492.975250,892.592041 
	C492.896454,891.029846 492.439148,889.486816 492.785645,887.628174 
M512.199646,572.980530 
	C508.214325,571.976868 504.229004,570.973267 500.138367,569.943115 
	C500.039612,571.285889 499.980713,572.086975 499.097443,572.990540 
	C497.163330,572.641907 495.229218,572.293213 492.999329,571.891296 
	C492.999329,573.384949 492.947693,574.207642 493.007019,575.022217 
	C493.994568,588.587830 495.054443,602.148438 495.976166,615.718445 
	C496.733307,626.864624 497.361847,638.019836 497.990601,649.174255 
	C499.017822,667.398560 499.965332,685.627441 501.012543,703.850586 
	C501.605865,714.175110 502.383301,724.488953 502.985046,734.813049 
	C504.027832,752.703918 505.046936,770.596497 505.978729,788.493408 
	C506.433319,797.224548 506.645935,805.968140 507.046936,814.702515 
	C507.078979,815.400269 507.727020,816.069824 508.152374,816.872437 
	C510.527344,815.561768 512.754272,814.332825 514.997314,813.934875 
	C514.997314,815.817322 514.997314,817.699768 514.997314,820.263000 
	C528.835266,812.582520 541.968628,805.247314 555.144714,797.990051 
	C579.060486,784.817627 602.999207,771.686707 626.933167,758.547424 
	C646.736511,747.675720 666.557251,736.835693 686.351501,725.947449 
	C709.473389,713.228821 732.558289,700.443054 755.690186,687.742493 
	C774.392334,677.474121 793.155884,667.317566 811.858643,657.050232 
	C817.673035,653.858276 823.377563,650.466187 829.500732,646.954407 
	C824.209595,645.449890 819.623901,644.145935 815.453735,642.320618 
	C822.585449,638.368652 829.717102,634.416687 838.057678,629.794922 
	C728.547729,604.260803 620.603699,579.091858 511.582642,553.671814 
	C512.111267,560.828979 512.559143,566.893127 512.199646,572.980530 
z"/>
<path fill="#FCFCFC" opacity="1.000000" stroke="none" 
	d="
M808.957520,614.842224 
	C809.121033,615.832397 809.284485,616.822632 809.524780,618.278259 
	C799.873657,616.157715 790.305603,614.161011 780.789062,611.943176 
	C758.227417,606.685120 735.687256,601.335144 713.144226,595.997498 
	C695.299438,591.772156 677.481262,587.432983 659.619324,583.281860 
	C633.124268,577.124451 606.585327,571.155579 580.094299,564.981018 
	C556.593811,559.503418 533.141907,553.817688 509.648438,548.309448 
	C504.153748,547.021118 498.606476,545.896118 493.032104,545.023438 
	C485.928986,543.911316 480.781342,539.547241 475.658539,535.118347 
	C465.117645,526.005371 454.712463,516.734985 444.135162,507.664917 
	C431.106262,496.492706 417.911957,485.513428 404.879608,474.345184 
	C396.535034,467.194092 388.422333,459.772583 380.082275,452.616058 
	C369.542755,443.572205 358.827087,434.733734 348.282959,425.695129 
	C339.939667,418.543152 331.800964,411.152649 323.462219,403.995270 
	C312.797913,394.841705 301.977325,385.870300 291.312164,376.717743 
	C282.972839,369.561096 274.819580,362.187866 266.490234,355.019379 
	C255.460648,345.526917 244.317078,336.166931 233.266312,326.698914 
	C225.551758,320.089264 217.937958,313.362122 210.230362,306.744263 
	C198.811813,296.940094 187.307983,287.235016 175.918884,277.396973 
	C165.248795,268.180084 154.750702,258.763550 144.049789,249.583023 
	C131.149353,238.515518 118.067390,227.659729 105.155388,216.605560 
	C96.807480,209.458771 88.623985,202.119919 80.365395,194.868759 
	C78.488525,193.220840 76.605721,191.579666 73.650963,188.995483 
	C77.473671,189.455597 79.786743,189.733994 82.777084,190.243805 
	C86.976486,191.295685 90.464020,192.337540 94.027344,192.894531 
	C104.143562,194.475845 114.313133,195.720978 124.419548,197.358582 
	C134.818848,199.043640 145.142014,201.203003 155.547256,202.845856 
	C165.972733,204.491898 176.463425,205.721298 186.915466,207.204239 
	C191.497803,207.854385 196.066010,208.620270 200.621628,209.439362 
	C210.503906,211.216141 220.343201,213.255173 230.257385,214.825073 
	C240.846695,216.501923 251.530975,217.579056 262.120239,219.256210 
	C272.535980,220.905884 282.853882,223.174728 293.271118,224.813309 
	C303.857178,226.478455 314.517578,227.666275 325.134216,229.143784 
	C329.542969,229.757339 333.929688,230.540253 338.314117,231.315704 
	C348.702850,233.153107 359.059875,235.183792 369.475403,236.851379 
	C379.733612,238.493820 390.052643,239.753601 400.335785,241.244720 
	C405.246704,241.956818 410.143524,242.774017 415.033722,243.618866 
	C421.198456,244.683899 427.393036,245.635880 433.487183,247.021759 
	C436.177948,247.633667 439.281128,248.563080 441.136688,250.412354 
	C560.654724,369.525208 680.055237,488.756104 799.536194,607.906128 
	C802.266785,610.629150 805.799194,612.548157 808.957520,614.842224 
z"/>
<path fill="#FCFCFC" opacity="1.000000" stroke="none" 
	d="
M453.194061,224.958466 
	C449.209045,219.956772 443.114471,221.132217 437.941132,220.143494 
	C423.636810,217.409607 409.218445,215.253281 394.817444,213.049942 
	C380.868591,210.915787 366.863831,209.143799 352.923828,206.956421 
	C341.586060,205.177368 330.316864,202.965103 318.997742,201.061066 
	C315.471191,200.467850 311.880920,200.253586 308.536438,199.889420 
	C287.758484,158.836502 267.083557,117.987167 246.111847,76.551392 
	C249.045486,77.082161 251.572479,77.539368 254.783859,78.260330 
	C257.435822,78.780258 259.419708,78.948051 261.368256,79.307434 
	C271.267883,81.133270 281.128387,83.192039 291.060394,84.815720 
	C301.145966,86.464508 311.306213,87.651901 321.419098,89.140648 
	C325.981079,89.812210 330.508575,90.718994 335.049957,91.528915 
	C345.095306,93.320427 355.119293,95.242996 365.189911,96.878395 
	C375.311859,98.522125 385.504181,99.735168 395.620667,101.408836 
	C405.539551,103.049812 415.373901,105.204651 425.296692,106.818260 
	C435.383148,108.458504 445.538086,109.673477 455.651215,111.155357 
	C460.051575,111.800156 464.423309,112.640877 468.806335,113.402634 
	C475.613495,114.585709 482.407196,115.851952 489.228363,116.947571 
	C499.027039,118.521454 508.864288,119.860519 518.649780,121.509521 
	C528.552246,123.178230 538.387695,125.249153 548.296814,126.873138 
	C558.217957,128.499084 568.220337,129.630661 578.138550,131.272430 
	C588.365906,132.965363 598.555908,134.909424 608.706665,137.012054 
	C610.273254,137.336548 612.162231,138.805786 612.845215,140.246628 
	C616.646301,148.265060 620.074036,156.459320 623.717346,164.553879 
	C633.473206,186.229507 643.259949,207.891251 653.060120,229.546906 
	C662.724976,250.903503 672.461853,272.227570 682.093323,293.599182 
	C693.085754,317.990631 704.002380,342.416260 714.941162,366.831848 
	C724.531494,388.237610 734.087585,409.658661 743.693420,431.057404 
	C755.446533,457.239410 767.154602,483.442108 779.038391,509.564728 
	C786.575867,526.133179 794.398010,542.572083 802.050903,559.380615 
	C802.318176,560.151917 802.627075,560.611816 802.924133,561.027954 
	C802.912292,560.984192 802.837585,561.035461 802.837646,561.035461 
	C805.530945,567.087097 808.224304,573.138733 810.574341,579.420288 
	C809.141785,578.629395 808.023987,577.637329 806.967529,576.583740 
	C691.075989,461.007324 575.191711,345.423615 459.276672,229.870728 
	C457.441040,228.040802 455.229950,226.587509 453.194061,224.958466 
z"/>
<path fill="#FCFCFC" opacity="1.000000" stroke="none" 
	d="
M210.962784,1005.136536 
	C209.241470,1005.401733 207.520172,1005.666870 204.949127,1006.062988 
	C208.674042,1000.049866 212.048477,994.450928 215.568375,988.945007 
	C237.403519,954.790222 259.236237,920.633728 281.143402,886.525085 
	C292.017822,869.594055 303.106842,852.800964 313.996368,835.879578 
	C332.368927,807.330139 350.627106,778.707214 368.995117,750.155029 
	C385.189362,724.981812 401.540924,699.909607 417.689026,674.707031 
	C434.001068,649.248596 450.146606,623.683411 466.384338,598.177307 
	C466.631165,597.789612 467.124573,597.559021 467.531525,597.232056 
	C468.040466,598.947815 468.524078,600.578125 469.038513,603.049927 
	C469.673553,615.661804 470.262726,627.432983 470.885284,639.202332 
	C471.920380,658.770996 472.881622,678.344177 474.047913,697.905090 
	C475.570007,723.432739 477.343048,748.945435 478.854462,774.473694 
	C480.061920,794.867981 481.073547,815.274109 482.104370,835.678467 
	C482.574219,844.978821 482.807434,854.291077 483.280701,863.591248 
	C483.820801,874.204407 484.588806,884.806702 485.018677,895.423401 
	C485.065948,896.589905 483.807098,898.476868 482.706390,898.921570 
	C467.612122,905.018921 452.477844,911.022583 437.275940,916.846985 
	C417.502350,924.422913 397.607544,931.683838 377.859406,939.324585 
	C351.049744,949.697449 324.359741,960.379395 297.561249,970.781677 
	C276.413574,978.990479 255.141022,986.877991 234.003983,995.113708 
	C226.205704,998.152161 218.636475,1001.778381 210.962784,1005.136536 
z"/>
<path fill="#FCFCFC" opacity="1.000000" stroke="none" 
	d="
M514.981201,813.103882 
	C512.754272,814.332825 510.527344,815.561768 508.152374,816.872437 
	C507.727020,816.069824 507.078979,815.400269 507.046936,814.702515 
	C506.645935,805.968140 506.433319,797.224548 505.978729,788.493408 
	C505.046936,770.596497 504.027832,752.703918 502.985046,734.813049 
	C502.383301,724.488953 501.605865,714.175110 501.012543,703.850586 
	C499.965332,685.627441 499.017822,667.398560 497.990601,649.174255 
	C497.361847,638.019836 496.733307,626.864624 495.976166,615.718445 
	C495.054443,602.148438 493.994568,588.587830 493.007019,575.022217 
	C492.947693,574.207642 492.999329,573.384949 492.999329,571.891296 
	C495.229218,572.293213 497.163330,572.641907 499.833984,573.137695 
	C502.963257,574.136536 505.304352,575.198853 507.758392,575.800354 
	C515.214722,577.628235 522.714233,579.280334 530.197815,580.996582 
	C536.775330,582.505005 543.365723,583.959106 549.929321,585.525635 
	C557.270203,587.277649 564.577393,589.171021 571.917542,590.926086 
	C579.417419,592.719238 586.942932,594.404968 594.450989,596.164185 
	C601.148193,597.733398 607.822510,599.403564 614.533508,600.910767 
	C621.597290,602.497131 628.710632,603.863647 635.769226,605.471741 
	C643.445984,607.220581 651.082275,609.146851 658.740723,610.976746 
	C665.890381,612.685120 673.048950,614.356384 680.198242,616.066223 
	C686.902100,617.669617 693.580200,619.385681 700.304016,620.899231 
	C707.366882,622.489014 714.492493,623.801208 721.550598,625.410583 
	C729.226379,627.160889 736.844177,629.163757 744.509216,630.963135 
	C751.366028,632.572754 758.263672,634.007874 765.123352,635.605591 
	C775.515076,638.025940 785.894897,640.497864 796.269165,642.992126 
	C802.338989,644.451538 808.388000,645.997131 815.335327,647.725037 
	C786.746399,663.318848 759.030273,678.355286 731.390991,693.531799 
	C691.149353,715.627991 650.975952,737.848328 610.747864,759.969421 
	C590.331787,771.196106 569.821655,782.252014 549.428467,793.519897 
	C537.868347,799.907166 526.458679,806.566895 514.981201,813.103882 
z"/>
<path fill="#2E2F2E" opacity="1.000000" stroke="none" 
	d="
M452.744934,224.982635 
	C455.229950,226.587509 457.441040,228.040802 459.276672,229.870728 
	C575.191711,345.423615 691.075989,461.007324 806.967529,576.583740 
	C808.023987,577.637329 809.141785,578.629395 810.521973,579.789795 
	C817.154297,586.871765 823.495728,593.814148 829.406433,600.284973 
	C821.492676,598.715027 812.465637,596.924255 803.067810,595.158691 
	C802.697021,595.183899 802.937012,595.200928 802.822510,594.900696 
	C802.118103,594.411438 801.528320,594.222412 800.600464,593.978455 
	C798.610229,592.556458 796.835938,591.311890 795.323364,589.804749 
	C733.482666,528.187256 671.659119,466.552368 609.847290,404.905853 
	C555.821777,351.024780 501.828491,297.111328 447.730194,243.303436 
	C445.867615,241.450897 443.157379,239.788895 440.623352,239.373489 
	C408.628571,234.128693 376.593903,229.127274 344.568665,224.068420 
	C309.588287,218.542786 274.606964,213.023239 239.626419,207.498825 
	C204.809296,202.000229 169.982239,196.563202 135.182938,190.953934 
	C126.381332,189.535202 117.668915,187.563126 108.915512,185.845306 
	C104.470993,181.903488 100.020844,177.967987 95.584656,174.016815 
	C93.762779,172.394119 91.970955,170.737656 90.165443,169.096573 
	C90.409317,168.705154 90.653191,168.313736 90.897064,167.922318 
	C96.181747,168.751709 101.466652,169.579773 106.751083,170.410782 
	C124.995728,173.279831 143.241470,176.141968 161.484390,179.021896 
	C178.757050,181.748657 196.030563,184.470200 213.296494,187.238937 
	C229.252960,189.797699 245.199844,192.416092 261.150970,195.008057 
	C276.941589,197.573944 292.724945,200.185501 308.524780,202.693176 
	C326.286499,205.512222 344.070221,208.192520 361.831207,211.015930 
	C379.749084,213.864258 397.638367,216.894104 415.563995,219.691681 
	C427.786743,221.599243 440.050415,223.244370 452.744934,224.982635 
z"/>
<path fill="#FCFCFC" opacity="1.000000" stroke="none" 
	d="
M822.038818,540.132690 
	C830.405090,538.083252 838.771301,536.033813 847.933960,533.925293 
	C871.831543,528.086182 894.926514,522.280701 918.047668,516.581360 
	C919.655640,516.184998 921.457886,516.576782 923.181641,516.902405 
	C924.483398,519.104797 925.832703,520.969604 927.053650,522.914917 
	C935.438843,536.274414 943.756287,549.676636 952.173706,563.015686 
	C964.359680,582.326782 976.559570,601.629700 988.862732,620.866150 
	C993.441345,628.024963 998.328064,634.986694 1003.074280,642.038330 
	C1001.727966,642.684021 1000.325500,643.981445 999.044312,643.870972 
	C989.798401,643.074097 980.571716,642.040039 971.349426,640.988403 
	C960.186279,639.715576 949.042664,638.266785 937.873108,637.056091 
	C930.229919,636.227661 922.548218,635.758972 914.898804,634.981506 
	C902.568665,633.728271 890.251892,632.344666 877.927429,631.035278 
	C875.163513,630.741638 872.289429,629.932556 869.641541,630.385803 
	C861.058533,631.855164 859.842346,625.086670 857.426636,619.842651 
	C851.593384,607.179871 845.934021,594.436035 840.294983,581.684937 
	C837.316101,574.949097 834.526306,568.129639 831.324585,560.798157 
	C828.011597,553.543152 825.025208,546.837952 822.038818,540.132690 
z"/>
<path fill="#2D2F2D" opacity="1.000000" stroke="none" 
	d="
M821.993469,539.763062 
	C825.025208,546.837952 828.011597,553.543152 830.997070,560.625122 
	C829.415039,559.910278 827.674438,558.990723 826.280090,557.697815 
	C819.986511,551.862061 813.791077,545.920593 807.239502,540.046021 
	C806.918762,540.074768 806.962769,540.142212 806.913452,539.890686 
	C806.607666,539.439392 806.351135,539.239563 805.947388,538.711914 
	C804.456543,535.743042 802.999756,533.152893 801.785522,530.453674 
	C759.175049,435.732788 716.582764,341.003784 673.998962,246.270966 
	C656.896973,208.225677 639.853271,170.154114 622.641174,132.158844 
	C621.745117,130.180847 619.714172,127.642700 617.874634,127.326538 
	C587.233337,122.060287 556.538696,117.104691 525.854919,112.085648 
	C487.788361,105.858978 449.722198,99.629967 411.653534,93.416313 
	C375.881744,87.577560 340.100739,81.795181 304.337036,75.907326 
	C292.862000,74.018173 281.429230,71.872032 269.977142,69.843475 
	C267.877930,65.173347 265.778687,60.503212 263.263519,54.907658 
	C267.268433,55.377575 270.731171,55.657112 274.150726,56.205658 
	C296.469818,59.786007 318.790771,63.357086 341.088898,67.064980 
	C359.970673,70.204781 378.808533,73.608841 397.691376,76.741798 
	C416.904053,79.929474 436.155731,82.881485 455.376099,86.023750 
	C474.754822,89.191887 494.110901,92.498489 513.486511,95.685829 
	C530.587341,98.498962 547.705261,101.207741 564.808594,104.005577 
	C584.350098,107.202263 603.824707,110.909805 623.453613,113.413399 
	C630.134094,114.265472 632.647095,117.637642 634.967590,122.830399 
	C651.287109,159.350861 667.714233,195.823196 684.114014,232.307770 
	C697.383972,261.829529 710.668640,291.344666 723.937988,320.866699 
	C740.336670,357.350922 756.733948,393.835815 773.117493,430.326843 
	C786.102356,459.248077 799.070496,488.176849 812.035278,517.107056 
	C815.360352,524.526611 818.644958,531.964233 821.993469,539.763062 
z"/>
<path fill="#8BFBAF" opacity="1.000000" stroke="none" 
	d="
M269.568176,69.901131 
	C281.429230,71.872032 292.862000,74.018173 304.337036,75.907326 
	C340.100739,81.795181 375.881744,87.577560 411.653534,93.416313 
	C449.722198,99.629967 487.788361,105.858978 525.854919,112.085648 
	C556.538696,117.104691 587.233337,122.060287 617.874634,127.326538 
	C619.714172,127.642700 621.745117,130.180847 622.641174,132.158844 
	C639.853271,170.154114 656.896973,208.225677 673.998962,246.270966 
	C716.582764,341.003784 759.175049,435.732788 801.785522,530.453674 
	C802.999756,533.152893 804.456543,535.743042 805.949768,538.976501 
	C806.387146,539.760071 806.674927,539.951172 806.962769,540.142212 
	C806.962769,540.142212 806.918762,540.074768 806.885742,540.097900 
	C812.503113,552.896118 818.153564,565.671326 823.804016,578.446472 
	C823.548340,578.683533 823.292603,578.920593 823.036926,579.157654 
	C816.481140,572.903442 809.925293,566.649170 803.103516,560.715210 
	C802.837585,561.035461 802.912292,560.984192 803.235779,560.802002 
	C803.070374,560.102844 802.581421,559.585938 802.092468,559.069092 
	C794.398010,542.572083 786.575867,526.133179 779.038391,509.564728 
	C767.154602,483.442108 755.446533,457.239410 743.693420,431.057404 
	C734.087585,409.658661 724.531494,388.237610 714.941162,366.831848 
	C704.002380,342.416260 693.085754,317.990631 682.093323,293.599182 
	C672.461853,272.227570 662.724976,250.903503 653.060120,229.546906 
	C643.259949,207.891251 633.473206,186.229507 623.717346,164.553879 
	C620.074036,156.459320 616.646301,148.265060 612.845215,140.246628 
	C612.162231,138.805786 610.273254,137.336548 608.706665,137.012054 
	C598.555908,134.909424 588.365906,132.965363 578.138550,131.272430 
	C568.220337,129.630661 558.217957,128.499084 548.296814,126.873138 
	C538.387695,125.249153 528.552246,123.178230 518.649780,121.509521 
	C508.864288,119.860519 499.027039,118.521454 489.228363,116.947571 
	C482.407196,115.851952 475.613495,114.585709 468.806335,113.402634 
	C464.423309,112.640877 460.051575,111.800156 455.651215,111.155357 
	C445.538086,109.673477 435.383148,108.458504 425.296692,106.818260 
	C415.373901,105.204651 405.539551,103.049812 395.620667,101.408836 
	C385.504181,99.735168 375.311859,98.522125 365.189911,96.878395 
	C355.119293,95.242996 345.095306,93.320427 335.049957,91.528915 
	C330.508575,90.718994 325.981079,89.812210 321.419098,89.140648 
	C311.306213,87.651901 301.145966,86.464508 291.060394,84.815720 
	C281.128387,83.192039 271.267883,81.133270 261.368256,79.307434 
	C259.419708,78.948051 257.435822,78.780258 255.186340,78.238319 
	C253.128159,74.379013 251.351868,70.805489 249.144150,66.364037 
	C256.214355,67.633858 262.686768,68.796326 269.568176,69.901131 
z"/>
<path fill="#8CFBB0" opacity="1.000000" stroke="none" 
	d="
M108.492310,185.911865 
	C117.668915,187.563126 126.381332,189.535202 135.182938,190.953934 
	C169.982239,196.563202 204.809296,202.000229 239.626419,207.498825 
	C274.606964,213.023239 309.588287,218.542786 344.568665,224.068420 
	C376.593903,229.127274 408.628571,234.128693 440.623352,239.373489 
	C443.157379,239.788895 445.867615,241.450897 447.730194,243.303436 
	C501.828491,297.111328 555.821777,351.024780 609.847290,404.905853 
	C671.659119,466.552368 733.482666,528.187256 795.323364,589.804749 
	C796.835938,591.311890 798.610229,592.556458 800.733154,594.310059 
	C801.781555,594.864746 802.359314,595.032837 802.937012,595.200928 
	C802.937012,595.200928 802.697021,595.183899 802.643433,595.289429 
	C808.294617,601.328003 813.922241,607.338806 819.766113,613.131470 
	C820.999573,614.354126 823.025024,614.777710 824.685547,615.569519 
	C824.067383,616.240601 823.449219,616.911682 822.831116,617.582764 
	C818.483093,616.716370 814.135071,615.850037 809.372314,614.912964 
	C805.799194,612.548157 802.266785,610.629150 799.536194,607.906128 
	C680.055237,488.756104 560.654724,369.525208 441.136688,250.412354 
	C439.281128,248.563080 436.177948,247.633667 433.487183,247.021759 
	C427.393036,245.635880 421.198456,244.683899 415.033722,243.618866 
	C410.143524,242.774017 405.246704,241.956818 400.335785,241.244720 
	C390.052643,239.753601 379.733612,238.493820 369.475403,236.851379 
	C359.059875,235.183792 348.702850,233.153107 338.314117,231.315704 
	C333.929688,230.540253 329.542969,229.757339 325.134216,229.143784 
	C314.517578,227.666275 303.857178,226.478455 293.271118,224.813309 
	C282.853882,223.174728 272.535980,220.905884 262.120239,219.256210 
	C251.530975,217.579056 240.846695,216.501923 230.257385,214.825073 
	C220.343201,213.255173 210.503906,211.216141 200.621628,209.439362 
	C196.066010,208.620270 191.497803,207.854385 186.915466,207.204239 
	C176.463425,205.721298 165.972733,204.491898 155.547256,202.845856 
	C145.142014,201.203003 134.818848,199.043640 124.419548,197.358582 
	C114.313133,195.720978 104.143562,194.475845 94.027344,192.894531 
	C90.464020,192.337540 86.976486,191.295685 83.191513,190.207367 
	C80.234283,187.266953 77.539886,184.594391 73.851723,180.936111 
	C86.180832,182.752945 97.124969,184.365677 108.492310,185.911865 
z"/>
<path fill="#2D2E2E" opacity="1.000000" stroke="none" 
	d="
M513.007080,572.957275 
	C512.559143,566.893127 512.111267,560.828979 511.582642,553.671814 
	C620.603699,579.091858 728.547729,604.260803 838.057678,629.794922 
	C829.717102,634.416687 822.585449,638.368652 814.824341,642.649170 
	C812.555786,642.791443 810.880127,642.763489 809.282837,642.395325 
	C779.337830,635.492981 749.398438,628.566467 719.465332,621.612671 
	C662.351196,608.344360 605.233765,595.089905 548.136841,581.747742 
	C536.383972,579.001404 524.714844,575.896729 513.007080,572.957275 
z"/>
<path fill="#8CFBB0" opacity="1.000000" stroke="none" 
	d="
M210.975952,1005.495605 
	C218.636475,1001.778381 226.205704,998.152161 234.003983,995.113708 
	C255.141022,986.877991 276.413574,978.990479 297.561249,970.781677 
	C324.359741,960.379395 351.049744,949.697449 377.859406,939.324585 
	C397.607544,931.683838 417.502350,924.422913 437.275940,916.846985 
	C452.477844,911.022583 467.612122,905.018921 482.706390,898.921570 
	C483.807098,898.476868 485.065948,896.589905 485.018677,895.423401 
	C484.588806,884.806702 483.820801,874.204407 483.280701,863.591248 
	C482.807434,854.291077 482.574219,844.978821 482.104370,835.678467 
	C481.073547,815.274109 480.061920,794.867981 478.854462,774.473694 
	C477.343048,748.945435 475.570007,723.432739 474.047913,697.905090 
	C472.881622,678.344177 471.920380,658.770996 470.885284,639.202332 
	C470.262726,627.432983 469.673553,615.661804 469.111755,603.425293 
	C470.868927,600.702332 472.583710,598.445496 474.635437,596.587524 
	C475.567383,607.927856 476.138245,618.870728 476.762390,629.810425 
	C478.152435,654.174561 479.610718,678.534790 480.961731,702.901062 
	C482.037872,722.310242 482.902496,741.731262 484.032074,761.137146 
	C485.286255,782.683594 486.718781,804.219788 488.102905,825.758484 
	C489.434814,846.485168 490.804077,867.209534 492.156921,887.934875 
	C492.439148,889.486816 492.896454,891.029846 492.975250,892.592041 
	C493.493286,902.861816 493.455963,902.835510 480.407410,907.877686 
	C451.154633,919.181702 421.946472,930.601868 392.658661,941.814148 
	C361.719879,953.658508 330.670563,965.214355 299.742004,977.085083 
	C270.024628,988.491028 240.401352,1000.141968 210.726593,1011.659119 
	C210.020294,1011.933228 209.194138,1011.898499 207.377914,1012.156189 
	C208.869705,1009.553040 209.929413,1007.703918 210.975952,1005.495605 
z"/>
<path fill="#2D2E2D" opacity="1.000000" stroke="none" 
	d="
M492.471283,887.781494 
	C490.804077,867.209534 489.434814,846.485168 488.102905,825.758484 
	C486.718781,804.219788 485.286255,782.683594 484.032074,761.137146 
	C482.902496,741.731262 482.037872,722.310242 480.961731,702.901062 
	C479.610718,678.534790 478.152435,654.174561 476.762390,629.810425 
	C476.138245,618.870728 475.567383,607.927856 474.974060,596.524902 
	C478.463409,590.723450 481.951019,585.383606 485.843994,579.423218 
	C486.463928,580.833618 486.892792,581.374512 486.920166,581.934998 
	C487.638397,596.658386 488.240631,611.387756 489.018280,626.107849 
	C489.943542,643.621887 490.989288,661.129700 492.027649,678.637573 
	C492.987305,694.818665 494.039124,710.994385 494.990173,727.175964 
	C496.039001,745.020569 496.998962,762.870300 498.037170,780.715576 
	C498.651947,791.282043 499.294800,801.847351 500.010651,812.407349 
	C501.296295,831.374146 502.681244,850.334290 503.937866,869.302917 
	C504.168427,872.783325 504.345917,876.343506 503.845703,879.764099 
	C503.592316,881.496826 502.103546,883.525879 500.582977,884.485657 
	C498.251495,885.957214 495.410431,886.621338 492.471283,887.781494 
z"/>
<path fill="#8FF9B2" opacity="1.000000" stroke="none" 
	d="
M512.603394,572.968872 
	C524.714844,575.896729 536.383972,579.001404 548.136841,581.747742 
	C605.233765,595.089905 662.351196,608.344360 719.465332,621.612671 
	C749.398438,628.566467 779.337830,635.492981 809.282837,642.395325 
	C810.880127,642.763489 812.555786,642.791443 814.616577,642.909851 
	C819.623901,644.145935 824.209595,645.449890 829.500732,646.954407 
	C823.377563,650.466187 817.673035,653.858276 811.858643,657.050232 
	C793.155884,667.317566 774.392334,677.474121 755.690186,687.742493 
	C732.558289,700.443054 709.473389,713.228821 686.351501,725.947449 
	C666.557251,736.835693 646.736511,747.675720 626.933167,758.547424 
	C602.999207,771.686707 579.060486,784.817627 555.144714,797.990051 
	C541.968628,805.247314 528.835266,812.582520 514.997314,820.263000 
	C514.997314,817.699768 514.997314,815.817322 514.989258,813.519409 
	C526.458679,806.566895 537.868347,799.907166 549.428467,793.519897 
	C569.821655,782.252014 590.331787,771.196106 610.747864,759.969421 
	C650.975952,737.848328 691.149353,715.627991 731.390991,693.531799 
	C759.030273,678.355286 786.746399,663.318848 815.335327,647.725037 
	C808.388000,645.997131 802.338989,644.451538 796.269165,642.992126 
	C785.894897,640.497864 775.515076,638.025940 765.123352,635.605591 
	C758.263672,634.007874 751.366028,632.572754 744.509216,630.963135 
	C736.844177,629.163757 729.226379,627.160889 721.550598,625.410583 
	C714.492493,623.801208 707.366882,622.489014 700.304016,620.899231 
	C693.580200,619.385681 686.902100,617.669617 680.198242,616.066223 
	C673.048950,614.356384 665.890381,612.685120 658.740723,610.976746 
	C651.082275,609.146851 643.445984,607.220581 635.769226,605.471741 
	C628.710632,603.863647 621.597290,602.497131 614.533508,600.910767 
	C607.822510,599.403564 601.148193,597.733398 594.450989,596.164185 
	C586.942932,594.404968 579.417419,592.719238 571.917542,590.926086 
	C564.577393,589.171021 557.270203,587.277649 549.929321,585.525635 
	C543.365723,583.959106 536.775330,582.505005 530.197815,580.996582 
	C522.714233,579.280334 515.214722,577.628235 507.758392,575.800354 
	C505.304352,575.198853 502.963257,574.136536 500.246155,573.086487 
	C499.980713,572.086975 500.039612,571.285889 500.138367,569.943115 
	C504.229004,570.973267 508.214325,571.976868 512.603394,572.968872 
z"/>
<path fill="#2D2F2E" opacity="1.000000" stroke="none" 
	d="
M923.169800,516.602051 
	C921.457886,516.576782 919.655640,516.184998 918.047668,516.581360 
	C894.926514,522.280701 871.831543,528.086182 848.340942,533.831238 
	C846.957520,531.169373 846.195435,528.421997 844.910522,525.945923 
	C843.296753,522.835999 844.728516,521.743958 847.440674,521.062073 
	C878.704346,513.201233 909.976807,505.374634 941.210022,497.394409 
	C944.231812,496.622314 945.380920,497.986359 946.726624,500.119812 
	C957.423279,517.077942 968.218506,533.973877 978.918945,550.929688 
	C992.184082,571.949402 1005.390686,593.006104 1018.613770,614.052307 
	C1021.117615,618.037659 1023.580872,622.048523 1026.460327,626.688049 
	C1020.206238,626.056335 1014.990784,625.529541 1009.001831,624.934692 
	C1006.922913,623.176208 1005.470093,621.578857 1004.333740,619.781372 
	C983.938965,587.522949 963.587585,555.237244 943.214722,522.965027 
	C937.231018,513.486328 937.213806,513.497498 926.087952,515.966797 
	C925.116089,516.182556 924.142578,516.390503 923.169800,516.602051 
z"/>
<path fill="#8AFCAF" opacity="1.000000" stroke="none" 
	d="
M923.181641,516.902344 
	C924.142578,516.390503 925.116089,516.182556 926.087952,515.966797 
	C937.213806,513.497498 937.231018,513.486328 943.214722,522.965027 
	C963.587585,555.237244 983.938965,587.522949 1004.333740,619.781372 
	C1005.470093,621.578857 1006.922913,623.176208 1008.562073,624.939453 
	C1011.860291,630.103210 1014.839783,635.185608 1017.776367,640.292725 
	C1018.343750,641.279480 1018.743164,642.362915 1019.409851,643.815186 
	C1013.724426,643.150635 1008.828247,642.578308 1003.503174,642.022156 
	C998.328064,634.986694 993.441345,628.024963 988.862732,620.866150 
	C976.559570,601.629700 964.359680,582.326782 952.173706,563.015686 
	C943.756287,549.676636 935.438843,536.274414 927.053650,522.914917 
	C925.832703,520.969604 924.483398,519.104797 923.181641,516.902344 
z"/>
<path fill="#000000" opacity="1.000000" stroke="none" 
	d="
M802.050903,559.380615 
	C802.581421,559.585938 803.070374,560.102844 803.247620,560.845703 
	C802.627075,560.611816 802.318176,560.151917 802.050903,559.380615 
z"/>
<path fill="#000000" opacity="1.000000" stroke="none" 
	d="
M802.822510,594.900696 
	C802.359314,595.032837 801.781555,594.864746 801.071167,594.365051 
	C801.528320,594.222412 802.118103,594.411438 802.822510,594.900696 
z"/>
<path fill="#000000" opacity="1.000000" stroke="none" 
	d="
M806.913452,539.890686 
	C806.674927,539.951172 806.387146,539.760071 806.097046,539.304382 
	C806.351135,539.239563 806.607666,539.439392 806.913452,539.890686 
z"/>
</svg>